<svg width="80" height="97" viewBox="0 0 80 97" fill="none" xmlns="http://www.w3.org/2000/svg">
<ellipse cx="40" cy="48.6887" rx="39.9123" ry="48.1818" fill="white" fill-opacity="0.6"/>
<ellipse cx="40" cy="48.6879" rx="34.2105" ry="41.2987" fill="white" fill-opacity="0.7"/>
<ellipse cx="40" cy="48.688" rx="28.5088" ry="34.4156" fill="white"/>
<path d="M29.7368 37.6658C29.7368 36.9114 30.2443 36.2988 30.8692 36.2988H49.1308C49.7557 36.2988 50.2632 36.9114 50.2632 37.6658V59.7111C50.2629 60.0735 50.1435 60.421 49.9312 60.6773C49.7189 60.9335 49.431 61.0777 49.1308 61.078H30.8692C30.569 61.0777 30.2811 60.9335 30.0688 60.6773C29.8565 60.421 29.7371 60.0735 29.7368 59.7111V37.6658ZM38.4286 43.7532C38.36 43.698 38.2802 43.6662 38.1978 43.6613C38.1154 43.6564 38.0334 43.6786 37.9606 43.7255C37.8879 43.7724 37.827 43.8423 37.7845 43.9276C37.742 44.013 37.7194 44.1107 37.7193 44.2103V53.1666C37.7194 53.2662 37.742 53.3639 37.7845 53.4492C37.827 53.5346 37.8879 53.6045 37.9606 53.6514C38.0334 53.6983 38.1154 53.7204 38.1978 53.7156C38.2802 53.7107 38.36 53.6789 38.4286 53.6236L43.9924 49.1469C44.0549 49.0966 44.1062 49.0284 44.1417 48.9485C44.1772 48.8685 44.1958 48.7792 44.1958 48.6884C44.1958 48.5977 44.1772 48.5084 44.1417 48.4284C44.1062 48.3484 44.0549 48.2803 43.9924 48.23L38.4275 43.7532H38.4286Z" fill="#5956E9"/>
</svg>
